# xmcd
#
# Track frame offsets:
#	150
#	19383
#	35121
#	51846
#	67840
#	85944
#	99954
#	116597
#	135771
#	156973
#	177736
#	207476
#	225347
#	240903
#	250014
#	268762
#	282243
#	302326
# Disc length: 4242 seconds
# Revision: 1
# Processed by: cddbd v1.5.1PL0 Copyright (c) Steve Scherf et al.
#
# Submitted via: libkcddb 0.10
#
DISCID=ec109012
DTITLE=Mehmet - Nummer 2
DYEAR=1900
DGENRE=
TTITLE0=
TTITLE1=Nummer 2
TTITLE2=
TTITLE3=
TTITLE4=
TTITLE5=
TTITLE6=
TTITLE7=
TTITLE8=
TTITLE9=
TTITLE10=
TTITLE11=
TTITLE12=
TTITLE13=
TTITLE14=
TTITLE15=
TTITLE16=
TTITLE17=
EXTD=
EXTT0=
EXTT1=
EXTT2=
EXTT3=
EXTT4=
EXTT5=
EXTT6=
EXTT7=
EXTT8=
EXTT9=
EXTT10=
EXTT11=
EXTT12=
EXTT13=
EXTT14=
EXTT15=
EXTT16=
EXTT17=
PLAYORDER=
